{
  "accessors": [
    {
      "bufferView": 2,
      "componentType": 5126,
      "count": 13804,
      "max": [
        27.306100845336914,
        99.00979614257813,
        358.212890625
      ],
      "min": [
        -28.609600067138672,
        -4.677910804748535,
        -2.278200387954712
      ],
      "type": "VEC3"
    },
    {
      "bufferView": 2,
      "byteOffset": 165648,
      "componentType": 5126,
      "count": 13804,
      "max": [
        0.999998152256012,
        0.9999980926513672,
        0.9999836683273315
      ],
      "min": [
        -0.9999960064888,
        -0.999998927116394,
        -0.9999853372573853
      ],
      "type": "VEC3"
    },
    {
      "bufferView": 3,
      "componentType": 5126,
      "count": 13804,
      "max": [
        1.0,
        0.997823178768158,
        0.9999932646751404,
        1.0
      ],
      "min": [
        -0.999998927116394,
        -0.9970173239707947,
        -0.999987006187439,
        1.0
      ],
      "type": "VEC4"
    },
    {
      "bufferView": 1,
      "componentType": 5126,
      "count": 13804,
      "max": [
        0.996146023273468,
        0.9958320260047913
      ],
      "min": [
        0.0028899998869746923,
        0.0028899998869746923
      ],
      "type": "VEC2"
    },
    {
      "bufferView": 1,
      "byteOffset": 110432,
      "componentType": 5126,
      "count": 13804,
      "max": [
        0.996146023273468,
        0.9958320260047913
      ],
      "min": [
        0.0028899998869746923,
        0.0028899998869746923
      ],
      "type": "VEC2"
    },
    {
      "bufferView": 1,
      "byteOffset": 220864,
      "componentType": 5126,
      "count": 13804,
      "max": [
        0.996146023273468,
        0.9958320260047913
      ],
      "min": [
        0.0028899998869746923,
        0.0028899998869746923
      ],
      "type": "VEC2"
    },
    {
      "bufferView": 0,
      "componentType": 5125,
      "count": 51864,
      "type": "SCALAR"
    }
  ],
  "asset": {
    "extras": {
      "author": "romullus (https://sketchfab.com/romullus)",
      "license": "CC-BY-SA-4.0 (http://creativecommons.org/licenses/by-sa/4.0/)",
      "source": "https://sketchfab.com/3d-models/wooden-ladder-0ac651eb518a4bc69873b117cc7e3dd2",
      "title": "Wooden Ladder"
    },
    "generator": "Sketchfab-12.65.0",
    "version": "2.0"
  },
  "bufferViews": [
    {
      "buffer": 0,
      "byteLength": 207456,
      "name": "floatBufferViews",
      "target": 34963
    },
    {
      "buffer": 0,
      "byteLength": 331296,
      "byteOffset": 207456,
      "byteStride": 8,
      "name": "floatBufferViews",
      "target": 34962
    },
    {
      "buffer": 0,
      "byteLength": 331296,
      "byteOffset": 538752,
      "byteStride": 12,
      "name": "floatBufferViews",
      "target": 34962
    },
    {
      "buffer": 0,
      "byteLength": 220864,
      "byteOffset": 870048,
      "byteStride": 16,
      "name": "floatBufferViews",
      "target": 34962
    }
  ],
  "buffers": [
    {
      "byteLength": 1090912,
      "uri": "scene.bin"
    }
  ],
  "images": [
    {
      "uri": "textures/Ladder_baseColor.png"
    },
    {
      "uri": "textures/Ladder_metallicRoughness.png"
    },
    {
      "uri": "textures/Ladder_normal.png"
    }
  ],
  "materials": [
    {
      "doubleSided": true,
      "name": "Ladder",
      "normalTexture": {
        "index": 2
      },
      "occlusionTexture": {
        "index": 1
      },
      "pbrMetallicRoughness": {
        "baseColorTexture": {
          "index": 0
        },
        "metallicRoughnessTexture": {
          "index": 1
        }
      }
    }
  ],
  "meshes": [
    {
      "name": "Ladder_Ladder_0",
      "primitives": [
        {
          "attributes": {
            "NORMAL": 1,
            "POSITION": 0,
            "TANGENT": 2,
            "TEXCOORD_0": 3,
            "TEXCOORD_1": 4,
            "TEXCOORD_2": 5
          },
          "indices": 6,
          "material": 0,
          "mode": 4
        }
      ]
    }
  ],
  "nodes": [
    {
      "children": [
        1
      ],
      "matrix": [
        1.0,
        0.0,
        0.0,
        0.0,
        0.0,
        -2.220446049250313e-16,
        1.0,
        0.0,
        0.0,
        -1.0,
        -2.220446049250313e-16,
        0.0,
        0.0,
        -355.9363098144531,
        94.33174896240226,
        1.0
      ],
      "name": "Sketchfab_model"
    },
    {
      "children": [
        2
      ],
      "matrix": [
        1.0,
        0.0,
        0.0,
        0.0,
        0.0,
        -1.0,
        0.0,
        0.0,
        0.0,
        0.0,
        -1.0,
        0.0,
        0.0,
        0.0,
        0.0,
        1.0
      ],
      "name": "Ladder.FBX"
    },
    {
      "children": [
        3
      ],
      "name": "RootNode"
    },
    {
      "children": [
        4
      ],
      "name": "Ladder"
    },
    {
      "mesh": 0,
      "name": "Ladder_Ladder_0"
    }
  ],
  "samplers": [
    {
      "magFilter": 9729,
      "minFilter": 9987,
      "wrapS": 10497,
      "wrapT": 10497
    }
  ],
  "scene": 0,
  "scenes": [
    {
      "name": "Sketchfab_Scene",
      "nodes": [
        0
      ]
    }
  ],
  "textures": [
    {
      "sampler": 0,
      "source": 0
    },
    {
      "sampler": 0,
      "source": 1
    },
    {
      "sampler": 0,
      "source": 2
    }
  ]
}
