{
  "accessors": [
    {
      "bufferView": 2,
      "componentType": 5126,
      "count": 5375,
      "max": [
        558.45263671875,
        725.4161987304688,
        396.01641845703125
      ],
      "min": [
        -465.59234619140625,
        -0.4953399896621704,
        -484.94842529296875
      ],
      "type": "VEC3"
    },
    {
      "bufferView": 2,
      "byteOffset": 64500,
      "componentType": 5126,
      "count": 5375,
      "max": [
        0.9997965693473816,
        0.9999614357948303,
        0.9998690485954285
      ],
      "min": [
        -0.9995838403701782,
        -0.9997128844261169,
        -0.9995012879371643
      ],
      "type": "VEC3"
    },
    {
      "bufferView": 3,
      "componentType": 5126,
      "count": 5375,
      "max": [
        0.9999755024909973,
        0.9642249345779419,
        1.0,
        1.0
      ],
      "min": [
        -1.0,
        -0.9718618392944336,
        -1.0,
        -1.0
      ],
      "type": "VEC4"
    },
    {
      "bufferView": 1,
      "componentType": 5126,
      "count": 5375,
      "max": [
        0.625,
        1.0
      ],
      "min": [
        0.0,
        0.0
      ],
      "type": "VEC2"
    },
    {
      "bufferView": 0,
      "componentType": 5125,
      "count": 23994,
      "type": "SCALAR"
    },
    {
      "bufferView": 2,
      "byteOffset": 129000,
      "componentType": 5126,
      "count": 3966,
      "max": [
        560.7830810546875,
        271.73468017578125,
        471.69879150390625
      ],
      "min": [
        -377.2462158203125,
        -20.543699264526367,
        -149.29940795898438
      ],
      "type": "VEC3"
    },
    {
      "bufferView": 2,
      "byteOffset": 176592,
      "componentType": 5126,
      "count": 3966,
      "max": [
        0.9989115595817566,
        0.9991164207458496,
        0.9903022646903992
      ],
      "min": [
        -0.9997040629386902,
        -0.9958264231681824,
        -0.9989492893218994
      ],
      "type": "VEC3"
    },
    {
      "bufferView": 3,
      "byteOffset": 86000,
      "componentType": 5126,
      "count": 3966,
      "max": [
        0.9995952248573303,
        0.9995180368423462,
        0.999350905418396,
        1.0
      ],
      "min": [
        -0.9997738003730774,
        -0.9885534644126892,
        -0.9985225200653076,
        -1.0
      ],
      "type": "VEC4"
    },
    {
      "bufferView": 1,
      "byteOffset": 43000,
      "componentType": 5126,
      "count": 3966,
      "max": [
        1.0,
        0.666670024394989
      ],
      "min": [
        0.3333300054073334,
        0.25
      ],
      "type": "VEC2"
    },
    {
      "bufferView": 0,
      "byteOffset": 95976,
      "componentType": 5125,
      "count": 16032,
      "type": "SCALAR"
    },
    {
      "bufferView": 2,
      "byteOffset": 224184,
      "componentType": 5126,
      "count": 7220,
      "max": [
        691.1107788085938,
        847.4080200195313,
        526.4614868164063
      ],
      "min": [
        -600.5964965820313,
        -17.414260864257813,
        -617.9103393554688
      ],
      "type": "VEC3"
    },
    {
      "bufferView": 2,
      "byteOffset": 310824,
      "componentType": 5126,
      "count": 7220,
      "max": [
        0.9921618103981018,
        1.0,
        0.996841311454773
      ],
      "min": [
        -0.9992995262145996,
        -0.9909584522247314,
        -0.9935002326965332
      ],
      "type": "VEC3"
    },
    {
      "bufferView": 3,
      "byteOffset": 149456,
      "componentType": 5126,
      "count": 7220,
      "max": [
        0.9999964833259583,
        0.9992657899856567,
        0.9999999403953552,
        1.0
      ],
      "min": [
        -0.9999668598175049,
        -0.9945462346076965,
        -0.9999949336051941,
        -1.0
      ],
      "type": "VEC4"
    },
    {
      "bufferView": 1,
      "byteOffset": 74728,
      "componentType": 5126,
      "count": 7220,
      "max": [
        1.0,
        1.0
      ],
      "min": [
        0.3333300054073334,
        0.0
      ],
      "type": "VEC2"
    },
    {
      "bufferView": 0,
      "byteOffset": 160104,
      "componentType": 5125,
      "count": 20952,
      "type": "SCALAR"
    }
  ],
  "asset": {
    "extras": {
      "author": "evolveduk (https://sketchfab.com/evolveduk)",
      "license": "SKETCHFAB Standard (https://sketchfab.com/licenses)",
      "source": "https://sketchfab.com/3d-models/stylized-tropical-pack-27c1fe68c5fb4272a47eaa8972684a64",
      "title": "Stylized Tropical Pack"
    },
    "generator": "Sketchfab-16.59.0",
    "version": "2.0"
  },
  "bufferViews": [
    {
      "buffer": 0,
      "byteLength": 243912,
      "name": "floatBufferViews",
      "target": 34963
    },
    {
      "buffer": 0,
      "byteLength": 132488,
      "byteOffset": 243912,
      "byteStride": 8,
      "name": "floatBufferViews",
      "target": 34962
    },
    {
      "buffer": 0,
      "byteLength": 397464,
      "byteOffset": 376400,
      "byteStride": 12,
      "name": "floatBufferViews",
      "target": 34962
    },
    {
      "buffer": 0,
      "byteLength": 264976,
      "byteOffset": 773864,
      "byteStride": 16,
      "name": "floatBufferViews",
      "target": 34962
    }
  ],
  "buffers": [
    {
      "byteLength": 1038840,
      "uri": "scene.bin"
    }
  ],
  "images": [
    {
      "uri": "textures/Tree_0Mat_baseColor.png"
    },
    {
      "uri": "textures/Tree_0Mat_metallicRoughness.png"
    },
    {
      "uri": "textures/Tree_0Mat_normal.png"
    },
    {
      "uri": "textures/Tree_1Mat_baseColor.png"
    }
  ],
  "materials": [
    {
      "name": "Tree_0Mat",
      "normalTexture": {
        "index": 2
      },
      "pbrMetallicRoughness": {
        "baseColorTexture": {
          "index": 0
        },
        "metallicFactor": 0.0,
        "metallicRoughnessTexture": {
          "index": 1
        }
      }
    },
    {
      "alphaCutoff": 0.23968891896899946,
      "alphaMode": "MASK",
      "name": "Tree_1Mat",
      "normalTexture": {
        "index": 2
      },
      "pbrMetallicRoughness": {
        "baseColorTexture": {
          "index": 3
        },
        "metallicFactor": 0.0,
        "metallicRoughnessTexture": {
          "index": 1
        }
      }
    },
    {
      "alphaCutoff": 0.23968891896899946,
      "alphaMode": "MASK",
      "doubleSided": true,
      "name": "Tree_2Mat",
      "normalTexture": {
        "index": 2
      },
      "pbrMetallicRoughness": {
        "baseColorTexture": {
          "index": 3
        },
        "metallicFactor": 0.0,
        "metallicRoughnessTexture": {
          "index": 1
        }
      }
    }
  ],
  "meshes": [
    {
      "name": "Tree_0_Tree_0Mat_0",
      "primitives": [
        {
          "attributes": {
            "NORMAL": 1,
            "POSITION": 0,
            "TANGENT": 2,
            "TEXCOORD_0": 3
          },
          "indices": 4,
          "material": 0,
          "mode": 4
        }
      ]
    },
    {
      "name": "Tree_1_Tree_1Mat_0",
      "primitives": [
        {
          "attributes": {
            "NORMAL": 6,
            "POSITION": 5,
            "TANGENT": 7,
            "TEXCOORD_0": 8
          },
          "indices": 9,
          "material": 1,
          "mode": 4
        }
      ]
    },
    {
      "name": "Tree_2_Tree_2Mat_0",
      "primitives": [
        {
          "attributes": {
            "NORMAL": 11,
            "POSITION": 10,
            "TANGENT": 12,
            "TEXCOORD_0": 13
          },
          "indices": 14,
          "material": 2,
          "mode": 4
        }
      ]
    }
  ],
  "nodes": [
    {
      "children": [
        1
      ],
      "matrix": [
        1.0,
        0.0,
        0.0,
        0.0,
        0.0,
        2.220446049250313e-16,
        -1.0,
        0.0,
        0.0,
        1.0,
        2.220446049250313e-16,
        0.0,
        0.0,
        0.0,
        0.0,
        1.0
      ],
      "name": "Sketchfab_model"
    },
    {
      "children": [
        2
      ],
      "matrix": [
        0.009999999776482582,
        0.0,
        0.0,
        0.0,
        0.0,
        0.0,
        0.009999999776482582,
        0.0,
        0.0,
        -0.009999999776482582,
        0.0,
        0.0,
        0.0,
        0.0,
        0.0,
        1.0
      ],
      "name": "stylized tropical pack.fbx"
    },
    {
      "children": [
        3
      ],
      "name": "RootNode"
    },
    {
      "children": [
        4,
        5
      ],
      "name": "Tree_0"
    },
    {
      "mesh": 0,
      "name": "Tree_0_Tree_0Mat_0"
    },
    {
      "children": [
        6,
        7
      ],
      "name": "Tree_1"
    },
    {
      "mesh": 1,
      "name": "Tree_1_Tree_1Mat_0"
    },
    {
      "children": [
        8
      ],
      "name": "Tree_2"
    },
    {
      "mesh": 2,
      "name": "Tree_2_Tree_2Mat_0"
    }
  ],
  "samplers": [
    {
      "magFilter": 9729,
      "minFilter": 9987,
      "wrapS": 10497,
      "wrapT": 10497
    }
  ],
  "scene": 0,
  "scenes": [
    {
      "name": "Sketchfab_Scene",
      "nodes": [
        0
      ]
    }
  ],
  "textures": [
    {
      "sampler": 0,
      "source": 0
    },
    {
      "sampler": 0,
      "source": 1
    },
    {
      "sampler": 0,
      "source": 2
    },
    {
      "sampler": 0,
      "source": 3
    }
  ]
}
